<?xml version="1.0" encoding="UTF-8" standalone="no"?>
<!-- Created with Inkscape (http://www.inkscape.org/) -->

<svg
   xmlns:dc="http://purl.org/dc/elements/1.1/"
   xmlns:cc="http://creativecommons.org/ns#"
   xmlns:rdf="http://www.w3.org/1999/02/22-rdf-syntax-ns#"
   xmlns:svg="http://www.w3.org/2000/svg"
   xmlns="http://www.w3.org/2000/svg"
   xmlns:xlink="http://www.w3.org/1999/xlink"
   xmlns:sodipodi="http://sodipodi.sourceforge.net/DTD/sodipodi-0.dtd"
   xmlns:inkscape="http://www.inkscape.org/namespaces/inkscape"
   width="247.74695mm"
   height="169.50259mm"
   viewBox="0 0 877.84352 600.59974"
   id="svg2"
   version="1.1"
   inkscape:version="0.92.4 (5da689c313, 2019-01-14)"
   sodipodi:docname="Runner Leaving Blocks.svg"
   inkscape:export-filename="/home/algot/Documents/runeman.org/clipart/silhouette-runner-blocks.png"
   inkscape:export-xdpi="61.519459"
   inkscape:export-ydpi="61.519459">
  <title
     id="title3397">Runner Leaving Blocks</title>
  <defs
     id="defs4">
    <pattern
       inkscape:collect="always"
       xlink:href="#pattern2859"
       id="pattern2883"
       patternTransform="matrix(3.5804333,0.36497171,-0.05533501,0.54284562,528.42297,1525.741)" />
    <pattern
       inkscape:collect="always"
       xlink:href="#pattern2859"
       id="pattern2864"
       patternTransform="matrix(-0.85310556,-1.9434589e-4,1.0777812e-4,-0.47310551,528.42297,1525.741)" />
    <pattern
       inkscape:collect="always"
       xlink:href="#pattern2841"
       id="pattern2859"
       patternTransform="matrix(0.75187205,-0.5599953,0.5599953,0.75187205,528.42297,1525.741)" />
    <pattern
       inkscape:collect="always"
       xlink:href="#pattern2841"
       id="pattern2853"
       patternTransform="matrix(0.93750002,0,0,0.93750002,528.42297,1525.741)" />
    <pattern
       patternUnits="userSpaceOnUse"
       width="41.559972"
       height="101.94424"
       patternTransform="matrix(0.93750002,0,0,0.93750002,528.42297,1525.741)"
       id="pattern2841">
      <rect
         ry="0"
         rx="0"
         y="76.065231"
         x="0"
         height="13.201403"
         width="41.559971"
         id="rect2825"
         style="opacity:1;fill:#d4aa00;fill-opacity:1;stroke:none;stroke-width:2;stroke-linecap:butt;stroke-linejoin:round;stroke-miterlimit:4;stroke-dasharray:none;stroke-dashoffset:0;stroke-opacity:1" />
      <rect
         style="opacity:1;fill:#ffdd55;fill-opacity:1;stroke:none;stroke-width:2;stroke-linecap:butt;stroke-linejoin:round;stroke-miterlimit:4;stroke-dasharray:none;stroke-dashoffset:0;stroke-opacity:1"
         id="rect2827"
         width="41.559971"
         height="13.201403"
         x="0"
         y="88.742836"
         rx="0"
         ry="0" />
      <rect
         style="opacity:1;fill:#d4aa00;fill-opacity:1;stroke:none;stroke-width:2;stroke-linecap:butt;stroke-linejoin:round;stroke-miterlimit:4;stroke-dasharray:none;stroke-dashoffset:0;stroke-opacity:1"
         id="rect2829"
         width="41.559971"
         height="13.201403"
         x="0"
         y="50.710155"
         rx="0"
         ry="0" />
      <rect
         ry="0"
         rx="0"
         y="63.38776"
         x="0"
         height="13.201403"
         width="41.559971"
         id="rect2831"
         style="opacity:1;fill:#ffdd55;fill-opacity:1;stroke:none;stroke-width:2;stroke-linecap:butt;stroke-linejoin:round;stroke-miterlimit:4;stroke-dasharray:none;stroke-dashoffset:0;stroke-opacity:1" />
      <rect
         ry="0"
         rx="0"
         y="25.355078"
         x="0"
         height="13.201403"
         width="41.559971"
         id="rect2833"
         style="opacity:1;fill:#d4aa00;fill-opacity:1;stroke:none;stroke-width:2;stroke-linecap:butt;stroke-linejoin:round;stroke-miterlimit:4;stroke-dasharray:none;stroke-dashoffset:0;stroke-opacity:1" />
      <rect
         style="opacity:1;fill:#ffdd55;fill-opacity:1;stroke:none;stroke-width:2;stroke-linecap:butt;stroke-linejoin:round;stroke-miterlimit:4;stroke-dasharray:none;stroke-dashoffset:0;stroke-opacity:1"
         id="rect2835"
         width="41.559971"
         height="13.201403"
         x="0"
         y="38.032681"
         rx="0"
         ry="0" />
      <rect
         style="opacity:1;fill:#d4aa00;fill-opacity:1;stroke:none;stroke-width:2;stroke-linecap:butt;stroke-linejoin:round;stroke-miterlimit:4;stroke-dasharray:none;stroke-dashoffset:0;stroke-opacity:1"
         id="rect2837"
         width="41.559971"
         height="13.201403"
         x="0"
         y="0"
         rx="0"
         ry="0" />
      <rect
         ry="0"
         rx="0"
         y="12.677604"
         x="0"
         height="13.201403"
         width="41.559971"
         id="rect2839"
         style="opacity:1;fill:#ffdd55;fill-opacity:1;stroke:none;stroke-width:2;stroke-linecap:butt;stroke-linejoin:round;stroke-miterlimit:4;stroke-dasharray:none;stroke-dashoffset:0;stroke-opacity:1" />
    </pattern>
  </defs>
  <sodipodi:namedview
     id="base"
     pagecolor="#ffffff"
     bordercolor="#666666"
     borderopacity="1.0"
     inkscape:pageopacity="0.0"
     inkscape:pageshadow="2"
     inkscape:zoom="0.72310055"
     inkscape:cx="657.19474"
     inkscape:cy="-701.4599"
     inkscape:document-units="px"
     inkscape:current-layer="layer1"
     showgrid="false"
     fit-margin-top="0"
     fit-margin-left="0"
     fit-margin-right="0"
     fit-margin-bottom="0"
     inkscape:window-width="1306"
     inkscape:window-height="889"
     inkscape:window-x="-8"
     inkscape:window-y="-8"
     inkscape:window-maximized="1"
     inkscape:snap-global="false">
    <inkscape:grid
       type="xygrid"
       id="grid3376" />
  </sodipodi:namedview>
  <metadata
     id="metadata7">
    <rdf:RDF>
      <cc:Work
         rdf:about="">
        <dc:format>image/svg+xml</dc:format>
        <dc:type
           rdf:resource="http://purl.org/dc/dcmitype/StillImage" />
        <dc:title>Runner Leaving Blocks</dc:title>
        <dc:date>2016-09-05</dc:date>
        <dc:creator>
          <cc:Agent>
            <dc:title>Algot Runeman</dc:title>
          </cc:Agent>
        </dc:creator>
        <dc:rights>
          <cc:Agent>
            <dc:title>Algot Runeman</dc:title>
          </cc:Agent>
        </dc:rights>
        <dc:publisher>
          <cc:Agent>
            <dc:title>runeman.org</dc:title>
          </cc:Agent>
        </dc:publisher>
        <dc:identifier>silhouette-runner-blocks.svg</dc:identifier>
        <cc:license
           rdf:resource="http://creativecommons.org/publicdomain/zero/1.0/" />
      </cc:Work>
      <cc:License
         rdf:about="http://creativecommons.org/publicdomain/zero/1.0/">
        <cc:permits
           rdf:resource="http://creativecommons.org/ns#Reproduction" />
        <cc:permits
           rdf:resource="http://creativecommons.org/ns#Distribution" />
        <cc:permits
           rdf:resource="http://creativecommons.org/ns#DerivativeWorks" />
      </cc:License>
    </rdf:RDF>
  </metadata>
  <g
     inkscape:label="Layer 1"
     inkscape:groupmode="layer"
     id="layer1"
     transform="translate(18.656029,-576.771)">
    <path
       style="fill:#000000;fill-rule:evenodd;stroke:#000000;stroke-width:0.49018744px;stroke-linecap:butt;stroke-linejoin:miter;stroke-opacity:1"
       d="m -193.1235,1297.4493 7.62845,-34.328 v -22.8854 l -2.54282,-15.2569 3.81422,-12.714 5.08563,-3.8143 15.2569,-5.0856 17.79972,-1.2714 20.34253,45.7707 -10.17127,7.6284 -5.08563,12.7141 -16.52831,34.328 v 19.0712 c -5.13503,7.3495 -13.0546,2.1687 -20.47031,-0.7448 z"
       id="path3351"
       inkscape:connector-curvature="0"
       sodipodi:nodetypes="ccccccccccccccc" />
    <path
       style="fill:#4d4d4d;fill-rule:evenodd;stroke:#000000;stroke-width:0.49018744px;stroke-linecap:butt;stroke-linejoin:miter;stroke-opacity:1"
       d="m 519.47008,1032.5861 -23.88451,-59.79516 -13.20311,-34.21381 -2.20777,-49.79614 c 16.00818,-37.92215 42.99757,-43.02429 79.94537,-11.67776 l 15.42803,30.74404 7.10103,40.795 c 0,0 6.68781,17.6987 7.39754,27.00499 0.80753,10.58972 -3.66086,31.65044 -3.66086,31.65044 l -0.24291,9.165 -4.06706,23.5389 c -12.23424,27.38 -34.06859,21.5693 -62.60572,-7.4155 z"
       id="path868"
       inkscape:connector-curvature="0"
       sodipodi:nodetypes="cccccccscccc"
       inkscape:transform-center-x="-11.012333"
       inkscape:export-xdpi="61.519459"
       inkscape:export-ydpi="61.519459"
       inkscape:transform-center-y="66.808078" />
    <path
       style="fill:#4d4d4d;fill-rule:evenodd;stroke:#000000;stroke-width:0.49018744px;stroke-linecap:butt;stroke-linejoin:miter;stroke-opacity:1"
       d="m 544.63689,1220.1162 3.22534,-23.909 5.1372,-28.5337 4.29485,-19.0051 6.34492,-20.24 6.89398,-22.3062 4.98578,-20.5692 3.60673,-19.4052 2.02176,-13.119 3.71636,-13.7204 -3.17124,-16.9998 -11.58893,-11.1505 -15.46966,-5.9573 -13.94811,0.3896 c -16.35557,0.4569 -28.28203,37.3459 -31.48976,73.2553 0,0 -2.75654,16.3299 -3.86238,23.9841 -1.00308,6.943 -0.75199,14.0545 -0.16297,21.0448 0.30611,3.6329 1.70963,7.1284 1.91378,10.7684 0.51104,9.1147 -1.74786,27.3313 -1.74786,27.3313 l -6.06549,39.357 -5.30126,20.0066 c 13.87115,24.8614 38.20204,25.1574 50.66731,-1.2216 z"
       id="path860"
       inkscape:connector-curvature="0"
       sodipodi:nodetypes="cccccccccccccsccccccccc"
       inkscape:transform-center-x="10.683371"
       inkscape:transform-center-y="88.953029"
       inkscape:export-xdpi="61.519459"
       inkscape:export-ydpi="61.519459" />
    <path
       style="fill:#000000;fill-rule:evenodd;stroke:#000000;stroke-width:0.49018744px;stroke-linecap:butt;stroke-linejoin:miter;stroke-opacity:1"
       d="m 499.7037,1223.5968 -6.80517,-3.4471 0.5152,10.2375 -0.11863,22.7433 1.0898,9.1032 13.06557,2.3426 10.79709,1.1934 c 0,0 11.2984,-5.096 17.35823,-5.7905 7.63776,-0.8756 22.96222,2.1585 22.96222,2.1585 l 29.61826,3.428 26.2053,-9.5295 2.87256,-5.6709 -3.94753,-6.2752 c 0,0 -2.96029,-5.4181 -5.55334,-6.7429 -6.4535,-3.2961 -21.69718,-1.3596 -21.69718,-1.3596 l -17.01301,-8.6176 -14.15528,-11.4458 -7.92463,-6.8646 z"
       id="path872"
       inkscape:connector-curvature="0"
       sodipodi:nodetypes="ccccccccccccccccccc"
       inkscape:transform-center-x="-36.51362"
       inkscape:transform-center-y="19.058053"
       inkscape:export-xdpi="61.519459"
       inkscape:export-ydpi="61.519459" />
    <g
       id="g1637">
      <path
         inkscape:transform-center-y="62.339514"
         inkscape:transform-center-x="-65.176827"
         sodipodi:nodetypes="ccccccsccccccsccccccccccccccccsscccccccsccccc"
         inkscape:connector-curvature="0"
         id="path3359"
         d="m 530.93053,662.12883 -3.62781,14.13016 5.91895,33.74794 5.33965,20.48937 2.72021,27.45962 13.11971,22.91912 c 0,0 7.21737,9.57689 12.1532,10.06943 6.60794,0.65944 15.46676,-10.31357 15.46676,-10.31357 l 19.22418,-12.6016 20.53392,-16.0867 16.77644,-13.79872 11.82772,-10.20002 10.39948,-4.5405 c 0,0 10.80133,-0.61581 17.3892,-3.01531 3.55444,-1.29469 10.02727,-6.45835 10.02727,-6.45835 l 13.44477,-6.96601 c 16.35293,-3.78727 23.21768,-12.05277 -4.33987,-7.33823 l 13.54425,-5.32688 7.29632,-5.53408 c -0.17377,-6.02731 -6.6858,-2.59656 -12.45316,-0.90468 l -12.29535,2.57225 11.82844,-6.32135 11.70918,-8.02563 c 1.56267,-3.12049 -0.50554,-3.62099 -2.68533,-4.04103 l -23.03058,9.52181 18.11366,-11.25637 c 1.07314,-3.98261 -0.86577,-4.87218 -5.46341,-3.03258 -5.40233,0.38663 -13.57691,3.86377 -15.55762,4.07534 l -3.51166,0.87492 -9.5048,2.47556 c 6.99937,-8.85457 16.07866,-31.94346 -12.09,1.39206 -4.21156,4.98405 -7.52275,11.68927 -10.60183,15.12715 -4.05068,4.52286 -6.75808,8.67349 -6.75808,8.67349 l -7.38936,3.8186 -25.07879,16.61441 -14.15699,6.82848 -9.96291,3.37878 -4.63067,4.61139 -4.02247,-4.71771 c 0,0 4.02265,-15.27267 2.96271,-23.30505 -0.77333,-5.8606 -6.64942,-17.00426 -6.64942,-17.00426 l 4.01503,-14.53906 c 1.27538,-21.15405 -10.93035,-39.08758 -24.11523,-56.78718 -17.5758,4.21623 -31.44751,12.66708 -25.88571,43.33502 z"
         style="fill:#333333;fill-opacity:1;fill-rule:evenodd;stroke:#000000;stroke-width:0.54629451px;stroke-linecap:butt;stroke-linejoin:miter;stroke-opacity:1" />
      <g
         transform="translate(-414.37737,14.668226)"
         inkscape:export-ydpi="61.519459"
         inkscape:export-xdpi="61.519459"
         id="g838">
        <path
           inkscape:connector-curvature="0"
           id="path864"
           d="m 867.65351,912.2911 c -10.54569,-9.54334 -24.10889,-16.71443 -30.47285,-30.04637 -7.44819,-13.50988 -12.0276,-30.20084 -6.57934,-45.22523 3.62009,-8.99281 10.51139,-16.0733 15.15537,-24.48742 6.43281,-5.62075 15.57937,-3.13764 23.29054,-4.84272 32.74896,-3.34677 65.49791,-6.69353 98.24687,-10.0403 1.65779,20.37864 3.43748,40.77505 3.59874,61.23404 -7.70191,11.14514 -15.40383,22.29027 -23.10575,33.43541"
           style="fill:#000000;fill-rule:evenodd;stroke:#000000;stroke-width:0.54629451px;stroke-linecap:butt;stroke-linejoin:miter;stroke-opacity:1" />
        <path
           sodipodi:nodetypes="cccccccccccccc"
           inkscape:connector-curvature="0"
           id="path3357"
           d="m 966.88931,801.5737 c -1.59283,-18.87972 -5.91745,-24.87199 -9.94617,-46.55344 4.63306,-12.34968 8.09598,-37.2223 7.65445,-50.85659 3.44757,-16.82073 16.21161,-30.21657 18.23784,-47.51353 2.50067,-12.85089 1.22717,-26.03964 1.06187,-38.99681 -1.13031,-13.51008 -14.30502,-17.75843 -25.40936,-20.14847 -24.87598,-7.55909 -34.6307,-7.68108 -60.36239,-3.31576 -18.74204,7.76972 -32.40476,23.58657 -49.48502,34.08954 -10.22932,3.85416 -6.26442,11.40617 -3.35641,18.92615 2.09126,8.11914 0.57658,16.59896 -1.95554,24.34795 -1.45777,28.64672 3.40537,57.12735 3.24647,85.76693 0.5619,19.93549 0.50637,39.89066 -0.28028,59.81937 10.50621,7.91468 22.37036,-3.00304 33.65719,-1.53409 28.97898,-4.67707 57.95907,-9.35423 86.93735,-14.03125 z"
           style="fill:#000000;fill-rule:evenodd;stroke:#000000;stroke-width:0.54629451px;stroke-linecap:butt;stroke-linejoin:miter;stroke-opacity:1" />
      </g>
      <path
         inkscape:transform-center-y="65.798195"
         inkscape:transform-center-x="-41.842217"
         sodipodi:nodetypes="cccccscccccccccccsccccccccsccccccccccscccccccsccccccccccccc"
         inkscape:connector-curvature="0"
         id="path3363"
         d="m 422.43535,649.69592 -32.88216,28.75334 -4.81728,11.29635 0.21239,7.8583 -9.51605,11.17364 c 0,0 -5.62654,5.97207 -7.43817,9.08623 -3.12596,5.37362 -5.74998,16.26917 -5.74998,16.26917 l -4.93569,22.71546 -6.6236,15.53252 7.86264,6.63039 16.05615,9.70002 17.80336,11.17343 10.8143,5.27973 18.13404,7.6126 29.88116,7.91954 12.89228,3.19236 7.59119,4.48163 c 0,0 3.13819,5.42862 4.84837,6.51729 l 11.75068,7.48023 4.309,9.39312 2.32984,6.8543 2.52216,6.83635 c 2.75083,3.05479 5.50167,1.18989 8.2525,-2.63998 l -1.56971,-18.6021 5.96748,-2.73561 11.84099,19.5843 c 0,0 2.37073,4.51941 6.33709,3.39606 3.33843,-0.94549 4.20066,-5.94034 4.20066,-5.94034 l -10.36521,-20.25965 1.47578,-0.67535 c 11.21816,5.20123 23.18063,9.5093 38.67667,9.57709 l 6.77682,-1.9646 -0.543,-4.29753 c -12.07831,-3.25708 -24.23989,-6.51416 -35.48348,-9.77123 l 5.06904,-1.38236 19.08597,3.17255 15.35247,-1.83558 c 0,0 4.6951,-2.63739 4.44823,-4.04463 -0.34861,-1.98755 -7.85089,-3.22622 -7.85089,-3.22622 l -8.36597,-0.96183 -21.27146,-4.29471 -9.48333,-4.36157 12.34926,-1.10516 12.34935,-1.10511 7.37883,-3.37669 c 0,0 5.72516,-4.24921 3.80873,-6.43615 -1.61878,-1.84711 -8.71982,-1.54493 -8.71982,-1.54493 l -9.72836,3.31527 -25.84369,-0.67511 -21.20392,5.15714 -25.6028,-10.74992 -19.21345,-10.79211 -13.02128,-9.95227 -19.2912,-13.90213 -13.01586,-9.28898 11.7889,-9.4699 22.04288,-29.40742 22.10205,-35.11694 c 2.89138,-20.00439 0.99645,-37.27375 -43.7749,-30.0423 z"
         style="fill:#4d4d4d;fill-rule:evenodd;stroke:#000000;stroke-width:0.54629451px;stroke-linecap:butt;stroke-linejoin:miter;stroke-opacity:1" />
    </g>
    <path
       style="fill:#333333;fill-rule:evenodd;stroke:#000000;stroke-width:0.49018744px;stroke-linecap:butt;stroke-linejoin:miter;stroke-opacity:1"
       d="m 526.17325,605.06566 c 0,0 28.72143,-1.33778 29.39085,-14.12535 0.1193,-2.27913 -2.66289,-6.30769 -2.66289,-6.30769 0,0 6.09088,-1.89298 6.31745,-4.4609 0.11173,-1.26648 -2.6824,-2.71165 -2.6824,-2.71165 0,0 2.36564,-1.45899 2.71166,-2.6824 0.67255,-2.37788 -1.75899,-7.20182 -1.75899,-7.20182 0,0 5.37244,1.59996 7.19206,0.039 1.60833,-1.37967 1.39067,-4.21915 0.93315,-6.28817 -0.93316,-4.22001 -7.13353,-10.82712 -7.13353,-10.82712 l -2.65313,-8.1057 c 0,0 2.94449,-6.46316 2.75068,-9.87446 -0.3125,-5.50057 -6.21014,-15.31729 -6.21014,-15.31729 l 1.81754,-3.58627 7.20181,-1.75899 -6.23941,-9.92324 c 0,0 -8.46428,-7.43253 -13.43145,-9.96225 -7.26419,-3.69956 -15.19014,-6.98251 -23.3352,-7.31889 -7.98947,-0.32995 -15.66314,3.26025 -23.40347,5.26724 -6.05707,1.57053 -12.30528,2.72405 -18.00943,5.29649 -3.56182,1.6063 -7.20364,3.43395 -9.92322,6.23941 -4.57934,4.72392 -8.39214,10.64324 -9.98178,17.0275 -1.52226,6.1136 0.83077,12.58386 0.79658,18.88404 -0.0342,6.30019 -2.01163,12.65553 -1.00143,18.87428 1.03503,6.37167 7.09451,18.01918 7.09451,18.01918 l 8.92179,12.6349 1.07148,17.45706 c 11.85066,30.99453 30.27985,27.21103 50.97774,11.43384 z"
       id="path3361"
       inkscape:connector-curvature="0"
       sodipodi:nodetypes="cscscscssccsccccssssssssccccc"
       inkscape:transform-center-x="-9.4463679"
       inkscape:transform-center-y="-55.976422"
       inkscape:export-xdpi="61.519459"
       inkscape:export-ydpi="61.519459" />
    <path
       inkscape:transform-center-y="68.429524"
       inkscape:transform-center-x="1.6926166"
       sodipodi:nodetypes="cccccccscccc"
       inkscape:connector-curvature="0"
       id="path874"
       d="m 422.25265,1029.5891 -8.51889,-63.63889 -4.48464,-36.3094 7.78503,-49.0307 c 20.81374,-33.3717 40.32086,-47.9253 77.38119,7.2732 l 1.59708,32.0108 -4.34152,42.0472 c 0,0 2.20028,18.75075 0.99534,27.98065 -1.37113,10.50284 -9.20944,30.02814 -9.20944,30.02814 l -1.97914,8.8786 -7.98046,22.0309 c -15.59668,23.9427 -32.84428,13.3815 -51.24455,-21.2705 z"
       style="fill:#333333;fill-opacity:1;fill-rule:evenodd;stroke:#000000;stroke-width:0.45553151px;stroke-linecap:butt;stroke-linejoin:miter;stroke-opacity:1"
       inkscape:export-xdpi="61.519459"
       inkscape:export-ydpi="61.519459" />
    <path
       inkscape:transform-center-y="75.479448"
       inkscape:transform-center-x="41.8421"
       sodipodi:nodetypes="cccccccccccccscccccccc"
       inkscape:connector-curvature="0"
       id="path876"
       d="m 369.72248,1202.7973 11.30687,-21.3289 14.88587,-24.8759 16.26381,-15.4267 18.04285,-16.5307 14.74841,-18.1533 12.11747,-17.3559 10.24597,-16.8667 6.47656,-11.5901 8.50515,-11.4014 2.13217,-17.6207 -8.88045,-15.8306 -14.77424,-12.6267 -15.20531,-5.89646 c -17.82988,-6.91401 -42.78817,22.87106 -58.00112,55.64066 0,0 -8.32104,14.3189 -12.02,21.1141 -3.35534,6.1639 -5.40994,13.0519 -7.05962,19.9762 -0.85732,3.5986 -0.48343,7.5594 -1.45336,11.119 -2.42883,8.9133 -10.82892,25.253 -10.82892,25.253 l -19.42993,34.77 -12.27446,16.6782 c 6.86298,29.9184 23.0992,40.483 45.20228,20.9529 z"
       style="fill:#333333;fill-opacity:1;fill-rule:evenodd;stroke:#000000;stroke-width:0.53176761px;stroke-linecap:butt;stroke-linejoin:miter;stroke-opacity:1"
       inkscape:export-xdpi="61.519459"
       inkscape:export-ydpi="61.519459" />
    <path
       sodipodi:type="star"
       style="opacity:1;fill:#f4f516;fill-opacity:1;stroke:#000000;stroke-width:3.75;stroke-linecap:butt;stroke-linejoin:round;stroke-miterlimit:4;stroke-dasharray:none;stroke-dashoffset:0;stroke-opacity:1"
       id="path834"
       sodipodi:sides="5"
       sodipodi:cx="236.66312"
       sodipodi:cy="241.20052"
       sodipodi:r1="144.59399"
       sodipodi:r2="74.16153"
       sodipodi:arg1="0.73781506"
       sodipodi:arg2="1.3661336"
       inkscape:flatsided="false"
       inkscape:rounded="0.18"
       inkscape:randomized="0"
       d="m 343.65401,338.46496 c -11.52287,12.67516 -75.14606,-28.13214 -91.91853,-24.6507 -16.77247,3.48145 -58.89879,66.23907 -74.51435,59.19701 -15.61555,-7.04207 3.53385,-80.16146 -4.96018,-95.0372 -8.49402,-14.87574 -81.197817,-35.54708 -79.325889,-52.57448 1.871927,-17.02739 77.330099,-21.41036 88.852969,-34.08552 11.52287,-12.67516 8.71578,-88.20837 25.48824,-91.689812 16.77247,-3.481444 44.25878,66.929132 59.87434,73.971192 15.61555,7.04206 86.58447,-18.96869 95.0785,-4.09295 8.49402,14.87574 -49.97667,62.77484 -51.8486,79.80223 -1.87193,17.02739 44.79637,76.48507 33.2735,89.16023 z"
       inkscape:transform-center-x="8.6774325"
       inkscape:transform-center-y="-4.6698394"
       inkscape:export-xdpi="61.519459"
       inkscape:export-ydpi="61.519459" />
    <path
       inkscape:transform-center-y="7.9521792"
       inkscape:transform-center-x="-20.497408"
       sodipodi:nodetypes="ccccccccccccccccccc"
       inkscape:connector-curvature="0"
       id="path878"
       d="m 424.62459,1631.4795 -26.00789,-1.7391 0.21682,4.1595 0.072,13.4892 0.54964,3.7019 7.36416,1.0193 6.09095,0.5408 c 0,0 6.41971,-2.0102 9.84812,-2.2607 4.32113,-0.3157 12.95637,0.9961 12.95637,0.9961 l 16.70738,1.5462 14.87321,-3.7327 1.66367,-2.2878 -2.18463,-2.5685 c 0,0 -1.63304,-2.2153 -3.08834,-2.7668 -3.62187,-1.3719 -5.56059,-1.577 -5.56059,-1.577 l -4.6854,-3.5877 -5.78608,-3.5052 -2.90735,-4.9562 z"
       style="fill:#000000;fill-rule:evenodd;stroke:#d71c1c;stroke-width:0.23478808px;stroke-linecap:butt;stroke-linejoin:miter;stroke-opacity:1"
       inkscape:export-xdpi="61.519459"
       inkscape:export-ydpi="61.519459" />
    <path
       style="fill:#000000;fill-rule:evenodd;stroke:#000000;stroke-width:0.49018744px;stroke-linecap:butt;stroke-linejoin:miter;stroke-opacity:1"
       d="m 327.67102,1182.3964 -3.01122,-7.0089 -6.16962,8.1858 -14.67544,17.3754 -5.00133,7.6838 8.5233,10.1761 7.51955,7.8395 c 0,0 11.93729,3.335 17.03256,6.688 6.42208,4.2259 16.23524,16.3811 16.23524,16.3811 l 20.52852,21.6235 26.21878,9.4923 5.84058,-2.5099 0.99494,-7.3465 c 0,0 1.20294,-6.0557 0.0628,-8.7351 -2.83828,-6.6676 -15.77683,-14.9569 -15.77683,-14.9569 l -7.52834,-17.5222 -3.52188,-17.8598 -1.67879,-10.3492 z"
       id="path846"
       inkscape:connector-curvature="0"
       sodipodi:nodetypes="ccccccccccccccccccc"
       inkscape:transform-center-x="-5.030873"
       inkscape:transform-center-y="37.637953" />
    <g
       id="g1315"
       transform="matrix(1.9992132,-0.57173361,0.78789975,1.4507143,-1518.054,-146.9411)"
       style="fill:#008080;stroke-width:0.54629672"
       inkscape:export-xdpi="61.519459"
       inkscape:export-ydpi="61.519459">
      <path
         style="fill:#008080;stroke:#000000;stroke-width:0.89180595px;stroke-linecap:butt;stroke-linejoin:miter;stroke-opacity:1"
         d="m 344.83979,1513.3402 c -7.48733,3.4518 -17.92351,2.0075 -25.33097,2.1031 -7.40745,0.096 -14.03086,1.1045 -20.55137,0.8456 -6.52051,-0.2589 -12.56243,1.0815 -18.4382,0 -5.87576,-1.0815 -11.54464,-0.9807 -16.79301,-0.8994 -5.24836,0.082 -11.69542,-1.3794 -14.77111,2.454 -3.07569,3.8335 4.07001,9.2743 0.69287,13.8314 -2.0233,3.4062 -8.02087,6.4339 -5.20108,11.0278 2.96917,4.7037 9.09368,4.749 13.97261,5.7008 7.0456,1.0059 14.05177,2.606 21.21344,2.2967 4.38895,-0.075 8.77164,0.8632 13.12223,-0.1132 3.95773,-0.7125 7.97342,-1.0116 11.98364,-0.778"
         id="path1268"
         inkscape:connector-curvature="0"
         sodipodi:nodetypes="czzzzzcccccc" />
      <path
         style="fill:#008080;stroke:#000000;stroke-width:0.89180595px;stroke-linecap:butt;stroke-linejoin:miter;stroke-opacity:1"
         d="m 271.06817,1519.7238 c 11.49755,0 28.95721,1.899 36.09245,1.2305 7.13522,-0.6684 3.5003,-0.1201 7.99284,-0.9375 4.49254,-0.8179 12.85837,0.8101 16.28097,-0.2568 3.42261,-1.0667 6.97527,-0.1306 7.76695,-0.2629"
         id="path1270"
         inkscape:connector-curvature="0"
         sodipodi:nodetypes="czzzc" />
      <path
         style="fill:#008080;stroke:#000000;stroke-width:0.89180595px;stroke-linecap:butt;stroke-linejoin:miter;stroke-opacity:1"
         d="m 263.3355,1526.5972 c 12.03075,2.4856 28.58666,1.6209 36.57221,0.9766 7.98554,-0.6442 8.01292,0.1376 11.43023,-0.1723 3.41731,-0.3103 5.92502,-0.6809 9.12664,-0.6121 3.20162,0.07 7.25974,-2.025 9.71902,-1.8355 2.45927,0.1895 4.37939,-0.7996 5.81816,-1.303"
         id="path1272"
         inkscape:connector-curvature="0"
         sodipodi:nodetypes="czzzzc" />
      <path
         style="fill:#008080;stroke:#000000;stroke-width:0.89180595px;stroke-linecap:butt;stroke-linejoin:miter;stroke-opacity:1"
         d="m 249.58849,1532.6116 c 16.61426,1.4962 38.27524,2.2802 48.11391,1.9713 9.83868,-0.3089 6.14353,-1.0202 8.96899,-0.8094 2.82547,0.2109 5.05586,-1.611 7.66133,-0.8671 2.60548,0.7438 5.30623,-0.1289 7.00089,-0.9917 1.69463,-0.8625 0.29913,0.085 0.29913,0.085"
         id="path1274"
         inkscape:connector-curvature="0"
         sodipodi:nodetypes="czzzzc" />
      <path
         style="fill:#008080;stroke:#000000;stroke-width:0.89180595px;stroke-linecap:butt;stroke-linejoin:miter;stroke-opacity:1"
         d="m 254.7436,1538.626 c 10.81695,0.4616 21.58432,2.073 32.43101,1.7303 4.73432,0 9.4685,0.047 14.20281,0.047 5.35925,0.024 13.04975,0.2978 17.90136,-1.0448"
         id="path1276"
         inkscape:connector-curvature="0"
         sodipodi:nodetypes="cccc" />
      <path
         style="fill:#008080;stroke:#000000;stroke-width:0.89180595px;stroke-linecap:butt;stroke-linejoin:miter;stroke-opacity:1"
         d="m 256.46199,1543.781 c 5.22801,0.92 10.35102,2.9613 15.74356,2.4929 10.83148,-0.1689 28.16743,-0.4371 38.98455,-0.094"
         id="path1278"
         inkscape:connector-curvature="0"
         sodipodi:nodetypes="ccc" />
    </g>
    <rect
       style="opacity:1;fill:#cccccc;fill-opacity:1;stroke:none;stroke-width:0.15644738;stroke-linecap:butt;stroke-linejoin:round;stroke-miterlimit:4;stroke-dasharray:none;stroke-dashoffset:0;stroke-opacity:1"
       id="rect850"
       width="46.875"
       height="46.875"
       x="816.63477"
       y="1199.8367"
       rx="12.441057"
       ry="5.4600387"
       inkscape:export-xdpi="61.519459"
       inkscape:export-ydpi="61.519459" />
    <g
       id="g1240"
       transform="matrix(1.5116391,0,0,1.5116391,-1122.7551,-453.2642)">
      <path
         inkscape:connector-curvature="0"
         id="path867"
         d="m 809.79794,1459.1142 c 0.89853,-2.3179 1.60046,-4.7986 3.23417,-6.7342 1.04927,-0.9759 2.6113,-0.8903 3.92068,-0.6373 1.23,-0.023 2.40909,0.3611 3.58836,0.6476 1.15099,0.2125 2.34898,0.2038 3.48295,-0.098 0.97273,-0.037 1.04409,1.4223 0.17228,1.6623 -0.92151,0.7848 -1.69869,1.7334 -2.71088,2.4121 -1.80993,1.3923 -3.61288,2.8379 -5.67341,3.8466 -0.88617,0.3856 -1.94268,0.233 -2.75247,0.8126 -0.49295,0.3253 -1.08359,0.5609 -1.67917,0.4054 -0.9434,-0.1166 -1.93929,-0.9831 -1.69421,-2.0086 0.0254,-0.1067 0.0626,-0.2114 0.1117,-0.3089 z"
         style="fill:none;stroke:#000000;stroke-width:0.9375px;stroke-linecap:butt;stroke-linejoin:miter;stroke-opacity:1" />
      <path
         sodipodi:nodetypes="czzcccccccczzzssssc"
         inkscape:connector-curvature="0"
         id="path873"
         d="m 771.76085,1472.2929 c -0.92896,0.9642 -0.82686,0.5208 1.25129,2.1517 2.07815,1.6309 6.04711,4.8013 9.19238,9.3935 3.14523,4.5922 3.65173,12.2018 3.06263,18.4079 -0.39014,6.8022 -4.08904,12.8524 -8.82022,17.5569 -9.4722,10.2791 -23.60664,13.3586 -35.86964,18.9501 -7.444,4.3275 -16.18243,5.0814 -24.57754,5.7587 -3.39507,0.5047 -8.79586,1.7899 -10.02236,-2.6453 -1.29935,-0.7244 -5.57559,0 -3.60003,-2.8108 0.1556,-1.7053 1.79922,-2.0274 2.33961,-2.0864 8.55639,-2.7397 12.94987,-8.1712 19.58045,-13.987 9.06833,-9.1052 18.05002,-22.1042 24.15676,-29.9166 6.10674,-7.8124 10.35654,-10.8882 15.3225,-14.0073 4.96596,-3.1191 7.08255,-6.6803 10.79867,-9.3756 3.71612,-2.6953 7.97047,-10.2482 10.37997,-13.2743 2.4095,-3.0261 3.76666,-3.957 6.60273,-6.0993 2.83607,-2.1423 8.22291,-3.7134 11.51376,-4.0837 3.29085,-0.3703 5.19695,1.5272 7.08229,2.3683 1.88534,0.8411 2.50961,2.207 3.59164,2.6211"
         style="fill:none;stroke:#000000;stroke-width:0.9375px;stroke-linecap:butt;stroke-linejoin:miter;stroke-opacity:1" />
      <path
         sodipodi:nodetypes="cccccccccccccccccczc"
         inkscape:connector-curvature="0"
         id="path875"
         d="m 815.96254,1460.1384 c -1.65298,4.8652 -3.92756,9.4351 -1.7194,14.422 1.11155,-1.9638 4.57853,-4.6709 6.15297,-3.5256 -1.31766,1.2528 -4.73426,5.8979 -3.17503,5.6504 0.62126,-1.1173 5.33481,-4.1932 4.29372,-2.6984 -3.56065,1.4107 -2.26684,6.0978 1.4682,4.2757 3.13634,0.4557 1.63382,5.0434 -1.13652,2.8451 -4.08228,0.1245 1.49447,4.2431 0.097,3.0604 -5.49334,-0.88 -3.29883,6.2921 -1.02509,8.605 2.51857,6.4629 3.35201,13.4241 4.81347,20.1718 -1.07648,4.4975 -3.79558,-5.9771 -3.52307,-0.4721 0.0642,5.1837 -0.54412,10.6437 -3.41071,15.0987 -2.51791,-0.5168 0.49674,-6.6885 -1.66069,-5.8041 -1.83972,4.8815 -4.40138,9.5329 -7.46106,13.7364 -2.55834,2.3795 -4.93144,7.3307 -8.27484,7.4928 -1.05936,-1.693 4.11074,-6.2564 0.90602,-5.4454 -3.10489,3.3111 -6.71581,6.9337 -11.37069,7.6354 -1.72285,-1.1246 4.66829,-5.7558 0.68476,-3.6405 -5.45872,3.6734 -13.67465,4.3551 -18.80468,4.5511 -5.13003,0.196 -21.11089,-5.5977 -21.29154,-11.7285"
         style="fill:none;stroke:#000000;stroke-width:0.9375px;stroke-linecap:butt;stroke-linejoin:miter;stroke-opacity:1" />
      <path
         sodipodi:nodetypes="czzzzzzzc"
         inkscape:connector-curvature="0"
         id="path877"
         d="m 800.07731,1448.9592 c 2.40297,-2.3907 2.94642,-2.7888 4.01572,-5.9954 1.0693,-3.2066 2.56978,-6.4407 3.61292,-8.9978 1.04314,-2.5571 2.19863,-4.214 3.12874,-5.8919 0.93011,-1.6779 1.96028,-2.4239 3.43965,-3.1276 1.47937,-0.7037 2.44209,0.7556 1.69528,2.1998 -0.74681,1.4442 -1.74888,3.0525 -3.39129,4.0046 -1.64241,0.9521 -3.89487,2.6116 -4.694,3.6796 -0.79913,1.068 -0.96166,1.2378 -1.25885,1.7985"
         style="fill:none;stroke:#000000;stroke-width:0.9375px;stroke-linecap:butt;stroke-linejoin:miter;stroke-opacity:1" />
      <path
         sodipodi:nodetypes="czzzzzzc"
         inkscape:connector-curvature="0"
         id="path879"
         d="m 803.59549,1448.9605 c -0.9128,-3.321 -2.3858,-6.4292 -2.14204,-8.9112 0.24376,-2.482 -0.0241,-2.5463 0.0557,-4.306 0.0798,-1.7597 -0.64596,-3.8462 -1.16412,-6.0359 -0.51816,-2.1897 -2.65697,-4.6855 -4.00957,-6.0086 -1.3526,-1.3231 -1.17821,0.5489 -1.4362,1.6522 -0.25799,1.1033 0.64749,3.0176 2.32975,3.7284 1.68226,0.7108 4.04707,2.254 3.83097,3.886"
         style="fill:none;stroke:#000000;stroke-width:0.9375px;stroke-linecap:butt;stroke-linejoin:miter;stroke-opacity:1" />
      <path
         sodipodi:nodetypes="czzzzzzzc"
         inkscape:connector-curvature="0"
         id="path881"
         d="m 798.44925,1449.2458 c -1.66693,-2.9501 -2.84812,-6.4009 -6.00243,-8.2418 -3.15431,-1.8409 -6.81893,-4.6025 -9.77205,-5.7983 -2.95312,-1.1958 -4.74416,-1.524 -7.22264,-1.0441 -2.47848,0.4799 -5.47519,0.071 -7.61347,0.5826 -2.13828,0.5112 0.27557,2.2638 1.76212,2.5931 1.48655,0.3293 3.00631,1.0899 5.60206,0.38 2.59575,-0.7099 5.8032,-1.7032 7.9581,-1.5694 2.1549,0.1338 1.41627,0.1975 2.09053,0.43"
         style="fill:none;stroke:#000000;stroke-width:0.9375px;stroke-linecap:butt;stroke-linejoin:miter;stroke-opacity:1" />
      <path
         sodipodi:nodetypes="ccc"
         inkscape:connector-curvature="0"
         id="path883"
         d="m 810.29136,1458.6208 c 2.61014,-0.4673 4.82182,-2.0178 7.08021,-3.3066 1.53676,-1.4471 6.03592,-1.3784 7.14606,-2.5035"
         style="fill:none;stroke:#000000;stroke-width:0.9375px;stroke-linecap:butt;stroke-linejoin:miter;stroke-opacity:1" />
      <path
         sodipodi:nodetypes="czzzzzzzzzzzc"
         inkscape:connector-curvature="0"
         id="path887"
         d="m 751.57425,1498.0944 c -1.64467,1.8093 -3.99881,3.799 -4.93421,5.4277 -0.9354,1.6287 -1.14115,2.7591 -0.0239,3.9822 1.11725,1.2231 3.53451,0.6504 4.81589,-0.1722 1.28138,-0.8226 3.57667,-3.7833 3.71962,-2.0079 0.14295,1.7754 -3.49828,4.5809 -3.56698,6.7495 -0.0687,2.1686 0.13394,2.672 3.89739,3.3024 3.76345,0.6304 3.23659,-0.087 4.35071,-1.0698 1.11412,-0.9829 2.81377,-3.8244 3.23034,-2.3748 0.41657,1.4496 -1.80934,3.0731 -1.76785,4.6945 0.0415,1.6214 0.19808,3.2538 1.45167,4.0838 1.25359,0.83 3.03085,1.6534 4.45545,0.8757 1.4246,-0.7777 2.40764,-1.5342 3.12189,-2.7605"
         style="fill:none;stroke:#000000;stroke-width:0.9375px;stroke-linecap:butt;stroke-linejoin:miter;stroke-opacity:1" />
      <path
         sodipodi:nodetypes="czzzzzzzzzzzzc"
         inkscape:connector-curvature="0"
         id="path889"
         d="m 740.22556,1509.9366 c -1.50505,2.0273 -3.75159,4.291 -4.51368,6.0858 -0.76209,1.7948 0.16332,2.6309 1.07114,3.686 0.90782,1.0551 3.00195,0.6527 4.25768,0.1158 1.25573,-0.5369 3.82387,-1.0737 3.05629,-2.0981 -0.76758,-1.0244 -1.76378,1.2234 -2.69229,2.3224 -0.92851,1.099 -1.49361,3.211 -0.0666,4.7977 1.42701,1.5867 5.21706,1.5414 6.55731,0.8729 1.34025,-0.6685 2.16027,-1.498 0.99776,-1.7078 -1.16251,-0.2098 -1.19571,1.095 -2.07577,1.5977 -0.88006,0.5027 -1.82331,1.4834 -1.64176,2.6503 0.18155,1.1669 0.89265,1.7382 2.71404,1.8958 1.82139,0.1576 5.82792,-1.2206 6.84674,-2.1509 1.01882,-0.9303 0.92587,-0.8389 1.20902,-0.8688"
         style="fill:none;stroke:#000000;stroke-width:0.9375px;stroke-linecap:butt;stroke-linejoin:miter;stroke-opacity:1" />
      <path
         sodipodi:nodetypes="czzzzzzzzc"
         inkscape:connector-curvature="0"
         id="path891"
         d="m 731.34399,1519.3116 c -1.38259,2.0776 -3.65659,4.1664 -4.06677,6.2969 -0.41018,2.1305 2.44732,2.9542 3.74793,2.7376 1.30061,-0.2166 1.45081,-0.305 2.5274,-0.9645 1.07659,-0.6595 0.10245,-2.6381 -0.68763,-1.5441 -0.79008,1.094 -1.16957,3.0528 -1.50092,4.1493 -0.33135,1.0965 0.29169,2.3581 0.7858,2.9251 0.49411,0.567 2.80807,0.9292 3.42595,0.763 0.61788,-0.1662 1.09294,-0.2336 2.76476,-1.1269 1.67182,-0.8933 1.1765,-0.6401 1.39098,-0.9014"
         style="fill:none;stroke:#000000;stroke-width:0.9375px;stroke-linecap:butt;stroke-linejoin:miter;stroke-opacity:1" />
      <path
         sodipodi:nodetypes="czzzzzc"
         inkscape:connector-curvature="0"
         id="path895"
         d="m 704.20583,1537.0747 c 3.08985,-0.4841 7.25957,-1.0713 9.22735,-1.7689 1.96778,-0.6976 1.5072,-0.2363 2.81971,-1.0143 1.31251,-0.778 4.19326,-1.6433 5.49539,-2.5812 1.30213,-0.9379 2.55911,-1.3317 3.09471,-1.534 0.5356,-0.2024 0.0299,0 0.0443,0 0.0144,0 0.0422,0 0.0422,0"
         style="fill:none;stroke:#000000;stroke-width:0.9375px;stroke-linecap:butt;stroke-linejoin:miter;stroke-opacity:1" />
      <path
         sodipodi:nodetypes="ccccc"
         inkscape:connector-curvature="0"
         id="path897"
         d="m 703.28192,1541.2367 c 6.26851,1.8185 7.53113,-1.2995 9.80549,-1.6949 6.70101,-1.1654 2.59468,-0.8841 5.42763,-1.9736 1.79679,-0.6911 3.63083,-1.2827 5.42763,-1.9737 1.85649,-0.5808 2.47498,-0.9274 2.96439,-0.9881"
         style="fill:none;stroke:#000000;stroke-width:0.9375px;stroke-linecap:butt;stroke-linejoin:miter;stroke-opacity:1" />
      <path
         sodipodi:nodetypes="cccc"
         inkscape:connector-curvature="0"
         id="path899"
         d="m 707.77761,1543.9952 c 2.30263,-0.3289 4.63497,-0.4927 6.9079,-0.9868 2.08959,-0.4543 7.85193,-2.3482 9.65769,-3.1005 0.33947,-0.1415 2.16496,-1.2789 2.47097,-1.4829"
         style="fill:none;stroke:#000000;stroke-width:0.9375px;stroke-linecap:butt;stroke-linejoin:miter;stroke-opacity:1" />
      <path
         sodipodi:nodetypes="czzzzzcccccc"
         inkscape:connector-curvature="0"
         id="path901"
         d="m 732.26274,1514.1653 c -4.29988,1.9823 -10.29325,1.1529 -14.54726,1.2078 -4.25401,0.055 -8.05775,0.6343 -11.8024,0.4856 -3.74465,-0.1487 -7.21445,0.6211 -10.58883,0 -3.37438,-0.6211 -6.62995,-0.5632 -9.64402,-0.5165 -3.01407,0.047 -6.71654,-0.7922 -8.48287,1.4093 -1.76633,2.2015 2.33736,5.3261 0.39791,7.9432 -1.16196,1.9561 -4.60629,3.6949 -2.98692,6.3331 1.70516,2.7013 5.22239,2.7273 8.0243,3.2739 4.0462,0.5777 8.06976,1.4966 12.18262,1.319 2.52052,-0.043 5.03744,0.4957 7.53593,-0.065 2.27288,-0.4092 4.57904,-0.581 6.88206,-0.4468"
         style="fill:none;stroke:#000000;stroke-width:0.9375px;stroke-linecap:butt;stroke-linejoin:miter;stroke-opacity:1" />
      <path
         sodipodi:nodetypes="czzzc"
         inkscape:connector-curvature="0"
         id="path903"
         d="m 689.89661,1517.8313 c 6.6029,0 16.62977,1.0906 20.72745,0.7067 4.09767,-0.3839 2.01018,-0.069 4.59019,-0.5384 2.58001,-0.4697 7.3844,0.4652 9.34996,-0.1475 1.96556,-0.6126 4.00581,-0.075 4.46046,-0.151"
         style="fill:none;stroke:#000000;stroke-width:0.9375px;stroke-linecap:butt;stroke-linejoin:miter;stroke-opacity:1" />
      <path
         sodipodi:nodetypes="czzzzc"
         inkscape:connector-curvature="0"
         id="path905"
         d="m 685.45583,1521.7786 c 6.90911,1.4275 16.41697,0.9309 21.00297,0.5609 4.586,-0.37 4.60172,0.079 6.56424,-0.099 1.96252,-0.1782 3.40267,-0.391 5.24132,-0.3515 1.83865,0.04 4.16918,-1.1629 5.58151,-1.0541 1.41233,0.1088 2.51503,-0.4592 3.3413,-0.7483"
         style="fill:none;stroke:#000000;stroke-width:0.9375px;stroke-linecap:butt;stroke-linejoin:miter;stroke-opacity:1" />
      <path
         sodipodi:nodetypes="czzzzc"
         inkscape:connector-curvature="0"
         id="path907"
         d="m 677.56109,1525.2326 c 9.54137,0.8593 21.981,1.3095 27.63123,1.1321 5.65023,-0.1774 3.52815,-0.5859 5.15078,-0.4648 1.62263,0.1211 2.90352,-0.9252 4.39981,-0.498 1.49629,0.4272 3.0473,-0.074 4.02052,-0.5695 0.97321,-0.4953 0.17179,0.049 0.17179,0.049"
         style="fill:none;stroke:#000000;stroke-width:0.9375px;stroke-linecap:butt;stroke-linejoin:miter;stroke-opacity:1" />
      <path
         sodipodi:nodetypes="cccc"
         inkscape:connector-curvature="0"
         id="path909"
         d="m 680.52161,1528.6866 c 6.21204,0.2651 12.39561,1.1905 18.62473,0.9937 2.71886,-6e-4 5.43764,0.027 8.1565,0.027 3.07775,0.014 7.49431,0.171 10.28053,-0.6"
         style="fill:none;stroke:#000000;stroke-width:0.9375px;stroke-linecap:butt;stroke-linejoin:miter;stroke-opacity:1" />
      <path
         sodipodi:nodetypes="ccc"
         inkscape:connector-curvature="0"
         id="path911"
         d="m 681.50846,1531.6471 c 3.00238,0.5283 5.94446,1.7006 9.04133,1.4316 6.22039,-0.097 16.17621,-0.251 22.38835,-0.054"
         style="fill:none;stroke:#000000;stroke-width:0.9375px;stroke-linecap:butt;stroke-linejoin:miter;stroke-opacity:1" />
      <ellipse
         ry="2.3987207"
         rx="2.4986675"
         cy="1455.0227"
         cx="801.40662"
         id="path1215"
         style="opacity:1;fill:#ffffff;fill-opacity:1;stroke:#000000;stroke-width:0.9375;stroke-linecap:butt;stroke-linejoin:round;stroke-miterlimit:4;stroke-dasharray:none;stroke-dashoffset:0;stroke-opacity:1" />
      <ellipse
         ry="0.81273937"
         rx="0.77740288"
         cy="1455.2922"
         cx="801.57465"
         id="path1217"
         style="opacity:1;fill:#000000;fill-opacity:1;stroke:#000000;stroke-width:0.9375;stroke-linecap:butt;stroke-linejoin:round;stroke-miterlimit:4;stroke-dasharray:none;stroke-dashoffset:0;stroke-opacity:1" />
    </g>
    <g
       id="g2881"
       transform="rotate(9.8234406,-1863.5386,1254.5502)"
       inkscape:export-xdpi="61.519459"
       inkscape:export-ydpi="61.519459">
      <path
         style="fill:#008080;stroke:#000000;stroke-width:1.58781672px;stroke-linecap:butt;stroke-linejoin:miter;stroke-opacity:1"
         d="m 437.56466,1435.899 c -1.98351,1.4973 14.48523,5.6803 17.19931,9.3772 2.71415,3.6966 7.51809,7.9785 8.78799,14.3513 1.26988,6.3728 0.52216,23.8633 -3.28079,35.2203 -3.74322,12.5292 -12.6469,22.6039 -22.65515,29.8461 -10.21432,8.0499 -44.83942,11.4763 -59.65986,12.5864 -14.8204,1.11 -9.8361,-0.097 -21.30478,3.148 -17.94526,-7.9713 4.00963,-21.06 6.81732,-26.1486 9.41428,-17.51 26.16805,-64.9221 33.40959,-72.467 7.24154,-7.5449 16.15829,-16.2132 23.56441,-20.0415 35.80806,-17.6971 50.06469,-8.7393 71.64531,11.8813 2.74187,-3.2984 9.73906,-7.2283 11.83637,-4.5954 -2.7612,1.9101 -10.55623,9.461 -7.85058,9.4981 1.54145,-1.8804 10.77949,-6.0985 8.3681,-3.6499 -6.5632,1.4884 -6.54377,10.6201 0.49662,8.4222 5.00851,1.8483 0.42276,9.9032 -3.18439,4.9301 -6.84553,-1.0709 6.18672,11.3262 4.40069,8.6804 -8.73529,-3.3895 -4.88679,-2.7738 -2.87026,6.2779 2.01655,9.0516 7.36106,43.3507 6.72191,56.3693 -3.83618,8.0229 -3.5931,-12.3298 -5.6442,-2.0022 -2.25129,9.6633 3.53501,22.8137 -3.25887,30.1866 -3.95225,-1.7647 0.39566,-11.0739 -3.59455,-10.117 -5.28017,8.4939 -3.2765,18.8748 -10.27704,25.7181 -5.33707,3.6103 -12.72479,10.4288 -18.35867,9.6636 -0.99158,-3.4874 2.49143,-11.2375 -3.20706,-10.7512 -6.66982,5.169 -14.32286,10.756 -22.38326,10.5762 -2.35354,-2.6417 10.38192,-9.2179 2.7949,-6.5537 -10.74907,5.0918 -30.53128,-0.6584 -39.15185,-1.9303 -8.62052,-1.2722 -31.52362,-15.793 -29.03508,-27.2553"
         id="path1244"
         inkscape:connector-curvature="0"
         sodipodi:nodetypes="czzccscczcccccccczccccccccczc" />
      <path
         style="fill:none;stroke:#000000;stroke-width:1.63245702px;stroke-linecap:butt;stroke-linejoin:miter;stroke-opacity:1"
         d="m 398.83575,1454.4781 c -1.6237,6.5229 -4.74224,14.3629 -4.8641,19.5772 -0.12192,5.214 2.77482,6.3843 5.83058,8.1165 3.05582,1.7325 7.51946,-1.3273 9.92659,-3.8974 2.40713,-2.5702 7.84166,-6.4302 5.13734,-8.2241 -2.70432,-1.7938 -2.95328,4.7775 -4.09324,8.4242 -1.14004,3.6467 -0.51838,9.4564 4.21956,12.0008 4.73793,2.5443 13.43897,-1.2943 15.92114,-4.2747 2.48211,-2.9808 3.6175,-5.8504 0.74477,-5.2295 -2.87275,0.6209 -1.75999,3.8994 -3.33173,6.0154 -1.57179,2.1156 -2.85359,5.4826 -1.37117,8.207 1.48242,2.7245 3.64344,3.4467 7.9884,2.0482 4.34501,-1.3984 12.33041,-8.7659 13.83249,-12.0817 1.50209,-3.3159 1.37097,-2.9973 1.99689,-3.3498"
         id="path1258"
         inkscape:connector-curvature="0"
         sodipodi:nodetypes="czzzzzzzzzzzzc" />
      <path
         style="fill:none;stroke:#000000;stroke-width:1.63245702px;stroke-linecap:butt;stroke-linejoin:miter;stroke-opacity:1"
         d="m 387.26897,1497.4292 c -1.50176,5.1538 -4.94018,10.9346 -4.2818,15.5364 0.65836,4.6016 7.49322,4.3353 10.17294,3.0139 2.67965,-1.3217 2.94291,-1.6028 4.81093,-3.6713 1.86801,-2.0684 -1.69984,-5.423 -2.62599,-2.6672 -0.92616,2.7559 -0.32599,6.9883 -0.2495,9.4382 0.0765,2.4497 2.35559,4.5874 3.84698,5.403 1.49141,0.8155 6.80393,-0.019 8.03082,-0.7749 1.22689,-0.7563 2.21423,-1.2151 5.21043,-4.1617 2.9962,-2.9465 2.10014,-2.0968 2.37758,-2.7725"
         id="path1260"
         inkscape:connector-curvature="0"
         sodipodi:nodetypes="czzzzzzzzc" />
    </g>
    <g
       id="g1369"
       transform="rotate(5.5927254,-3288.2931,-244.76716)"
       inkscape:export-xdpi="61.519459"
       inkscape:export-ydpi="61.519459">
      <path
         style="fill:#008080;stroke:#000000;stroke-width:1.63245702px;stroke-linecap:butt;stroke-linejoin:miter;stroke-opacity:1"
         d="m 590.71555,1416.6708 c -1.43914,4.2359 -4.70301,11.2509 -5.03891,16.1222 -26.39068,15.1064 -39.42816,15.9962 -54.00416,-0.5116 -1.0775,-8.1363 0.55512,-16.8362 4.60692,-22.2202 4.05178,-5.3839 6.41498,-7.0048 11.35339,-10.7352 4.93841,-3.7304 14.31845,-6.4661 20.04876,-7.1109 5.73032,-0.6448 9.04939,2.6593 12.33231,4.1239 3.28292,1.4646 5.50072,4.6911 7.38486,5.4122"
         id="path1246"
         inkscape:connector-curvature="0"
         sodipodi:nodetypes="ccccsssc" />
      <path
         style="fill:#ff9955;stroke:#000000;stroke-width:1.63245702px;stroke-linecap:butt;stroke-linejoin:miter;stroke-opacity:1"
         d="m 579.68137,1414.8874 c 1.56461,-4.0361 2.78687,-8.3557 5.63162,-11.7262 1.82709,-1.6993 4.54702,-1.5502 6.82704,-1.1097 2.14177,-0.04 4.19492,0.6288 6.24837,1.1277 2.0042,0.37 4.09025,0.3548 6.06481,-0.1707 1.6938,-0.064 1.81807,2.4767 0.29998,2.8946 -1.6046,1.3665 -2.9579,3.0183 -4.72041,4.2001 -3.15162,2.4244 -6.29107,4.9416 -9.87904,6.6981 -1.54307,0.6714 -3.38276,0.4057 -4.79284,1.4149 -0.85836,0.5665 -1.88684,0.9767 -2.92391,0.706 -1.64274,-0.2031 -3.37687,-1.7119 -2.95011,-3.4976 0.0442,-0.1858 0.109,-0.3681 0.1945,-0.5379 z"
         id="path1242"
         inkscape:connector-curvature="0" />
      <path
         style="fill:none;stroke:#000000;stroke-width:1.63245702px;stroke-linecap:butt;stroke-linejoin:miter;stroke-opacity:1"
         d="m 580.54057,1414.0283 c 4.545,-0.8137 8.39616,-3.5136 12.32868,-5.7578 2.67594,-2.5198 10.51027,-2.4002 12.44334,-4.3593"
         id="path1254"
         inkscape:connector-curvature="0"
         sodipodi:nodetypes="ccc" />
      <ellipse
         style="opacity:1;fill:#ffffff;fill-opacity:1;stroke:#000000;stroke-width:1.63245702;stroke-linecap:butt;stroke-linejoin:round;stroke-miterlimit:4;stroke-dasharray:none;stroke-dashoffset:0;stroke-opacity:1"
         id="ellipse1280"
         cx="565.0697"
         cy="1407.7629"
         rx="4.3508983"
         ry="4.1768622" />
      <ellipse
         style="opacity:1;fill:#000000;fill-opacity:1;stroke:#000000;stroke-width:1.63245702;stroke-linecap:butt;stroke-linejoin:round;stroke-miterlimit:4;stroke-dasharray:none;stroke-dashoffset:0;stroke-opacity:1"
         id="ellipse1282"
         cx="565.36224"
         cy="1408.2323"
         rx="1.3536819"
         ry="1.4152129" />
    </g>
    <g
       id="g1362"
       transform="translate(-181.36527,365.36171)">
      <path
         style="fill:#ffff00;stroke:#000000;stroke-width:1.63245702px;stroke-linecap:butt;stroke-linejoin:miter;stroke-opacity:1"
         d="m 562.75496,1397.2046 c 4.18426,-4.1629 5.13057,-4.8561 6.99252,-10.4397 1.86197,-5.5836 4.47473,-11.2151 6.29114,-15.6677 1.81641,-4.4527 3.82845,-7.3378 5.44804,-10.2595 1.61959,-2.9217 3.41341,-4.2207 5.98942,-5.4461 2.57601,-1.2253 4.25238,1.3157 2.95196,3.8305 -1.3004,2.5148 -3.0453,5.3153 -5.90521,6.9732 -2.85991,1.6579 -6.78208,4.5475 -8.17359,6.4072 -1.39153,1.8597 -1.67453,2.1554 -2.19203,3.1317"
         id="path1248"
         inkscape:connector-curvature="0"
         sodipodi:nodetypes="czzzzzzzc" />
      <path
         style="fill:#ffff00;stroke:#000000;stroke-width:1.63245702px;stroke-linecap:butt;stroke-linejoin:miter;stroke-opacity:1"
         d="m 568.88112,1397.2069 c -1.58944,-5.7828 -4.15436,-11.1951 -3.72991,-15.517 0.42447,-4.3218 -0.042,-4.4338 0.097,-7.4979 0.13896,-3.0642 -1.12479,-6.6974 -2.02706,-10.5103 -0.90226,-3.8129 -4.62655,-8.1588 -6.98182,-10.4627 -2.35526,-2.3039 -2.0516,0.9558 -2.50083,2.877 -0.44924,1.9211 1.12746,5.2545 4.05676,6.4922 2.9293,1.2377 7.04711,3.9249 6.67082,6.7666"
         id="path1250"
         inkscape:connector-curvature="0"
         sodipodi:nodetypes="czzzzzzc" />
      <path
         style="fill:#ffff00;stroke:#000000;stroke-width:1.63245702px;stroke-linecap:butt;stroke-linejoin:miter;stroke-opacity:1"
         d="m 559.92005,1397.7037 c -2.90261,-5.137 -4.95941,-11.1458 -10.45196,-14.3513 -5.49256,-3.2056 -11.87372,-8.0143 -17.01595,-10.0966 -5.14223,-2.0822 -8.26094,-2.6537 -12.57669,-1.818 -4.31575,0.8356 -9.53388,0.1236 -13.25724,1.0144 -3.72336,0.8902 0.47985,3.942 3.06836,4.5154 2.58851,0.5734 5.23485,1.8978 9.7548,0.6617 4.51994,-1.2362 10.10503,-2.9658 13.85734,-2.7328 3.7523,0.233 2.46613,0.3439 3.64021,0.7487"
         id="path1252"
         inkscape:connector-curvature="0"
         sodipodi:nodetypes="czzzzzzzc" />
    </g>
    <path
       style="opacity:1;fill:url(#pattern2883);fill-opacity:1;stroke:#000000;stroke-width:1.87499988;stroke-linecap:butt;stroke-linejoin:round;stroke-miterlimit:4;stroke-dasharray:none;stroke-dashoffset:0;stroke-opacity:1"
       d="m 316.0122,2034.3507 h 10.59514 c 3.4056,0 6.48744,2.4323 6.1473,5.4099 -3.24424,28.4002 -1.8595,56.0289 0,83.5785 0.20183,2.9903 -2.7417,5.4099 -6.1473,5.4099 H 316.0122 c -3.4056,0 -6.31265,-2.4174 -6.1473,-5.4099 1.5154,-27.4265 4.24778,-54.5053 0,-83.5785 -0.43328,-2.9655 2.7417,-5.4099 6.1473,-5.4099 z"
       id="rect1371"
       inkscape:connector-curvature="0"
       sodipodi:nodetypes="sssssssss" />
    <rect
       style="fill:url(#pattern2853);stroke:none"
       width="38.962475"
       height="95.572723"
       x="483.17807"
       y="1957.6305"
       id="rect2851" />
    <path
       sodipodi:nodetypes="sssssssss"
       inkscape:connector-curvature="0"
       id="path2862"
       d="m 334.41625,1941.4063 10.46698,1.643 c 3.36441,0.5282 6.03179,3.4089 5.23402,6.2978 -7.60905,27.5535 -10.52547,55.0627 -12.9606,82.5675 -0.26433,2.9853 -3.54745,4.9192 -6.91187,4.3911 l -10.46697,-1.643 c -3.36439,-0.5281 -5.86141,-3.367 -5.23402,-6.2978 5.75014,-26.8596 12.64859,-53.1872 12.96061,-82.5674 0.0318,-2.9968 3.54746,-4.9192 6.91185,-4.3912 z"
       style="opacity:1;fill:url(#pattern2864);fill-opacity:1;stroke:#000000;stroke-width:1.87499988;stroke-linecap:butt;stroke-linejoin:round;stroke-miterlimit:4;stroke-dasharray:none;stroke-dashoffset:0;stroke-opacity:1"
       inkscape:export-xdpi="61.519459"
       inkscape:export-ydpi="61.519459" />
    <path
       style="fill:#d4aa00;fill-opacity:1;stroke:#000000;stroke-width:1.875;stroke-linecap:butt;stroke-linejoin:miter;stroke-miterlimit:4;stroke-dasharray:none;stroke-opacity:1"
       d="m 310.67054,2125.9412 c -1.49401,1.9446 -1.16177,10.2152 3.64717,12.4325 5.27647,1.9708 9.44477,4.3465 14.32913,6.2866 4.88437,1.9402 8.01568,1.4072 13.35899,2.5467 5.34331,1.1395 11.98331,5.499 18.43455,4.8059 2.29965,-0.126 3.78865,-3.9053 0.97088,-4.8865 -20.35451,-6.9242 -1.03842,-6.5088 6.57378,-4.4057 3.56199,0.2891 4.60517,2.2269 8.09999,0.8844 3.25577,-2.043 0.87147,-6.8653 -2.42714,-6.5818 -3.29861,0.2835 -19.21261,-0.1576 -22.40742,-0.9564 -0.7579,-2.8888 17.95096,-4.4951 14.04464,-7.4391 -2.49416,-1.4278 -6.78803,-1.4757 -9.33057,-0.9068 -3.13297,1.075 -6.31087,2.0346 -9.56998,2.2237 -9.79194,1.2681 -7.80138,-2.8781 -15.21142,-3.889 -8.67897,-1.5134 -3.15753,0.5587 -20.5126,-0.1145 z"
       id="path2868"
       inkscape:connector-curvature="0"
       sodipodi:nodetypes="cczzcccczcccccc"
       inkscape:export-xdpi="61.519459"
       inkscape:export-ydpi="61.519459" />
    <rect
       ry="16.380116"
       rx="24.882114"
       y="1301.328"
       x="885.07251"
       height="140.625"
       width="93.75"
       id="rect848"
       style="opacity:0.47513811;fill:#d45500;fill-opacity:1;stroke:none;stroke-width:0.38321626;stroke-linecap:butt;stroke-linejoin:round;stroke-miterlimit:4;stroke-dasharray:none;stroke-dashoffset:0;stroke-opacity:1"
       inkscape:export-xdpi="61.519459"
       inkscape:export-ydpi="61.519459" />
    <rect
       style="opacity:0.47513811;fill:#d45500;fill-opacity:1;stroke:none;stroke-width:0.22125001;stroke-linecap:butt;stroke-linejoin:round;stroke-miterlimit:4;stroke-dasharray:none;stroke-dashoffset:0;stroke-opacity:1"
       id="rect842"
       width="46.875"
       height="93.75"
       x="799.54077"
       y="1401.7168"
       rx="12.441057"
       ry="10.920077"
       inkscape:export-xdpi="61.519459"
       inkscape:export-ydpi="61.519459" />
    <path
       inkscape:export-ydpi="100"
       inkscape:export-xdpi="100"
       inkscape:transform-center-y="45.594489"
       inkscape:transform-center-x="-0.44115564"
       sodipodi:nodetypes="cccccccccccccsssccccccc"
       inkscape:connector-curvature="0"
       id="path1657"
       d="m 1061.156,1335.2458 1.5872,-23.7313 2.7794,-12.0886 2.5979,-11.1447 1.9498,-8.6843 2.0875,-11.7063 1.0694,-10.6856 0.3245,-9.9936 -0.04,-6.723 0.9569,-7.1589 -3.6648,-8.2511 -8.3357,-4.6557 -10.2411,-1.7491 -8.6623,1.3046 c -10.1575,1.5296 -17.5459,14.4482 -15.9842,32.6658 1.1768,13.7277 -0.099,8.3876 -0.03,12.3044 0.063,3.5527 0.9253,7.09 1.9863,10.5397 0.5514,1.7929 0.5709,7.6434 1.0593,9.4479 1.2231,4.5186 1.6214,13.8104 1.6214,13.8104 l 0.5796,30.7122 1.9858,9.7811 c 19.6499,15.794 18.0433,5.9655 26.3725,-3.9939 z"
       style="fill:#333333;fill-opacity:1;fill-rule:evenodd;stroke:#000000;stroke-width:0.49018747px;stroke-linecap:butt;stroke-linejoin:miter;stroke-opacity:1" />
    <rect
       ry="10.920077"
       rx="12.441057"
       y="1495.9066"
       x="798.4762"
       height="93.75"
       width="46.875"
       id="rect844"
       style="opacity:0.47513811;fill:#d45500;fill-opacity:1;stroke:none;stroke-width:0.22125001;stroke-linecap:butt;stroke-linejoin:round;stroke-miterlimit:4;stroke-dasharray:none;stroke-dashoffset:0;stroke-opacity:1"
       inkscape:export-xdpi="61.519459"
       inkscape:export-ydpi="61.519459" />
    <path
       inkscape:export-ydpi="100"
       inkscape:export-xdpi="100"
       inkscape:transform-center-y="12.069304"
       inkscape:transform-center-x="-23.192184"
       sodipodi:nodetypes="ccccccccccccccccccc"
       inkscape:connector-curvature="0"
       id="path1659"
       d="m 1130.9878,1434.0692 -4.3224,-2.183 0.3272,6.4833 -0.075,14.4031 0.6922,5.765 8.2987,1.4836 6.8579,0.7557 c 0,0 7.1763,-3.2272 11.0253,-3.667 4.8512,-0.5546 14.5847,1.3669 14.5847,1.3669 l 18.8123,2.1709 16.6446,-6.0349 1.8245,-3.5914 -2.5073,-3.974 c 0,0 -1.8802,-3.4312 -3.5272,-4.2702 -4.099,-2.0874 -13.7812,-0.861 -13.7812,-0.861 l -10.806,-5.4575 -8.9909,-7.2485 -5.0334,-4.3473 z"
       style="fill:#000000;fill-rule:evenodd;stroke:#000000;stroke-width:0.49018744px;stroke-linecap:butt;stroke-linejoin:miter;stroke-opacity:1" />
    <path
       style="fill:#333333;fill-opacity:1;fill-rule:evenodd;stroke:#000000;stroke-width:0.54629451px;stroke-linecap:butt;stroke-linejoin:miter;stroke-opacity:1"
       d="m 903.83574,818.07289 -0.054,9.4552 9.0409,20.28371 6.5868,12.0395 6.0385,16.8344 11.8616,12.3407 c 0,0 6.0474,4.8831 9.2285,4.4147 4.2586,-0.6271 8.0991,-8.9221 8.0991,-8.9221 l 10.101,-10.9529 10.3751,-13.3503 8.3733,-11.3196 5.829,-8.27706 5.823,-4.49389 c 0,0 6.69426,-2.08983 10.45816,-4.63683 2.0309,-1.37424 5.2867,-5.64091 5.2867,-5.64091 l 7.3555,-6.49877 c 9.685,-4.95888 12.6984,-11.23738 -3.8854,-3.92931 l 7.6764,-5.484 3.7152,-4.62933 c -1.0592,-3.76187 -4.6129,-0.57848 -7.9724,1.39431 l -7.3253,3.55535 6.4407,-5.83872 6.0972,-6.89135 c 0.4907,-2.20814 -0.8886,-2.19675 -2.3253,-2.11723 l -12.9797,9.61668 9.6148,-9.93206 c 0.047,-2.67295 -1.3123,-2.92657 -3.9132,-1.04527 -3.3357,1.09466 -7.9275,4.5693 -9.1395,5.01454 l -2.0701,1.10362 -5.58596,3.05467 c 3.0052,-6.67006 5.07456,-22.61683 -7.3821,2.78098 -1.8625,3.79728 -2.8876,8.5347 -4.2817,11.18141 -1.8339,3.48197 -2.8819,6.51816 -2.8819,6.51816 l -4.0443,3.5655 -13.1495,14.39859 -7.8249,6.52462 -5.7317,3.6947 -2.1847,3.6291 -3.2728,-2.3318 c 0,0 0.1221,-10.23584 -1.8105,-15.11856 -1.41,-3.56255 -6.861,-9.64207 -6.861,-9.64207 l 0.2328,-9.77333 c -2.5324,-13.50018 -13.0334,-22.85054 -24.1133,-31.89949 -10.3863,5.42129 -17.7761,12.92087 -9.4453,31.32446 z"
       id="path1681"
       inkscape:connector-curvature="0"
       sodipodi:nodetypes="ccccccsccccccsccccccccccccccccsscccccccsccccc"
       inkscape:transform-center-x="-73.284623"
       inkscape:transform-center-y="54.246567" />
    <g
       id="g1690"
       inkscape:export-xdpi="100"
       inkscape:export-ydpi="100"
       transform="matrix(1,0,0,0.92045094,-2.5930048,74.675694)"
       style="stroke-width:1.04231668">
      <path
         style="fill:#333333;fill-opacity:1;fill-rule:evenodd;stroke:#000000;stroke-width:0.56941187px;stroke-linecap:butt;stroke-linejoin:miter;stroke-opacity:1"
         d="m 1140.3832,958.83979 -2.3515,9.15829 3.8367,21.87331 3.4612,13.27991 1.7633,17.7976 8.5043,14.8548 c 0,0 4.6784,6.2071 7.8779,6.5264 4.2833,0.4274 10.0257,-6.6846 10.0257,-6.6846 l 12.4614,-8.1676 13.3103,-10.4264 10.8747,-8.9435 7.6669,-6.611 6.741,-2.94287 c 0,0 7.0016,-0.39913 11.2719,-1.95434 2.3041,-0.83914 6.4998,-4.1859 6.4998,-4.1859 l 8.7151,-4.51494 c 10.6002,-2.45467 15.05,-7.81185 -2.8132,-4.75618 l 8.7796,-3.45255 4.7295,-3.58685 c -0.1126,-3.90653 -4.3338,-1.68293 -8.0722,-0.58636 l -7.97,1.66718 7.6673,-4.09711 7.59,-5.20171 c 1.013,-2.02251 -0.3277,-2.3469 -1.7406,-2.61915 l -14.9287,6.17145 11.7415,-7.29568 c 0.6956,-2.58128 -0.5612,-3.15785 -3.5415,-1.96553 -3.5018,0.25059 -8.8007,2.50425 -10.0846,2.64138 l -2.2763,0.56707 -6.1612,1.6045 c 4.5371,-5.73898 10.4224,-20.70376 -7.8368,0.90225 -2.73,3.23035 -4.8764,7.57626 -6.8723,9.80448 -2.6257,2.93143 -4.3806,5.62161 -4.3806,5.62161 l -4.7899,2.47498 -16.2564,10.76843 -9.1767,4.42584 -6.4581,2.1899 -3.0017,2.9888 -2.6074,-3.0577 c 0,0 2.6076,-9.89883 1.9205,-15.10492 -0.5013,-3.79848 -4.3102,-11.02111 -4.3102,-11.02111 l 2.6026,-9.42331 c 0.8267,-13.71074 -7.0852,-25.33414 -15.6318,-36.80592 -11.3929,2.7327 -20.3847,8.21001 -16.7795,28.08707 z"
         id="path1639"
         inkscape:connector-curvature="0"
         sodipodi:nodetypes="ccccccsccccccsccccccccccccccccsscccccccsccccc"
         inkscape:transform-center-x="-65.176827"
         inkscape:transform-center-y="62.339514" />
      <g
         id="g1645"
         inkscape:export-xdpi="61.519459"
         inkscape:export-ydpi="61.519459"
         transform="matrix(0.64821206,0,0,0.57672813,527.62326,581.4177)"
         style="stroke-width:1.7047298">
        <path
           sodipodi:nodetypes="cczscczzc"
           style="fill:#000000;fill-rule:evenodd;stroke:#000000;stroke-width:0.93128449px;stroke-linecap:butt;stroke-linejoin:miter;stroke-opacity:1"
           d="m 879.65421,902.17498 c -17.04607,-1.67525 -22.67377,1.34966 -29.03773,-11.98228 -7.44819,-13.50988 -13.63537,-33.40398 -10.82223,-46.02002 2.81314,-12.61605 2.94496,-20.25934 8.79103,-27.66661 5.40701,-6.85096 12.75078,-7.11163 20.46195,-8.81671 32.74896,-3.34677 65.49791,-6.69353 98.24687,-10.0403 1.65779,20.37864 7.58235,44.53805 3.59874,61.23404 -3.98361,16.69599 -14.75453,26.17682 -23.10575,33.43541 -8.35122,7.25859 -68.13288,9.85647 -68.13288,9.85647 z"
           id="path1641"
           inkscape:connector-curvature="0" />
        <path
           style="fill:#000000;fill-rule:evenodd;stroke:#000000;stroke-width:0.93128449px;stroke-linecap:butt;stroke-linejoin:miter;stroke-opacity:1"
           d="m 966.88931,801.5737 c -1.59283,-18.87972 -5.91745,-24.87199 -9.94617,-46.55344 4.63306,-12.34968 8.09598,-37.2223 7.65445,-50.85659 3.44757,-16.82073 16.21161,-30.21657 18.23784,-47.51353 2.50067,-12.85089 1.22717,-26.03964 1.06187,-38.99681 -1.13031,-13.51008 -14.30502,-17.75843 -25.40936,-20.14847 -24.87598,-7.55909 -34.6307,-7.68108 -60.36239,-3.31576 -18.74204,7.76972 -32.40476,23.58657 -49.48502,34.08954 -10.22932,3.85416 -6.26442,11.40617 -3.35641,18.92615 2.09126,8.11914 0.57658,16.59896 -1.95554,24.34795 -1.45777,28.64672 3.40537,57.12735 3.24647,85.76693 0.5619,19.93549 0.50637,39.89066 -0.28028,59.81937 10.50621,7.91468 22.37036,-3.00304 33.65719,-1.53409 28.97898,-4.67707 57.95907,-9.35423 86.93735,-14.03125 z"
           id="path1643"
           inkscape:connector-curvature="0"
           sodipodi:nodetypes="cccccccccccccc" />
      </g>
      <path
         inkscape:transform-center-y="67.3731"
         inkscape:transform-center-x="-42.387838"
         sodipodi:nodetypes="ccccccsccccccsccccccccccccccccsscccccccsccccc"
         inkscape:connector-curvature="0"
         id="path1683"
         d="m 1058.8563,971.58843 -5.2665,7.85292 -3.6645,21.90285 -1.1576,13.6746 -4.2627,17.3693 3.0735,16.8387 c 0,0 2.3449,7.4106 5.2556,8.7769 3.8966,1.8291 11.6792,-2.9653 11.6792,-2.9653 l 14.4698,-3.5529 16.0222,-5.4001 13.2319,-4.8127 9.4306,-3.6813 7.3362,-0.5307 c 0,0 6.735,1.9547 11.2795,1.91 2.452,-0.024 7.5226,-1.7831 7.5226,-1.7831 l 9.7211,-1.3559 c 10.8127,1.2146 16.7922,-2.3555 -1.0692,-5.4214 l 9.4282,-0.3325 5.6538,-1.8077 c 1.1945,-3.7211 -3.5262,-3.0297 -7.4164,-3.2404 l -8.0704,-1.0814 8.5939,-1.3107 8.8889,-2.3779 c 1.6285,-1.5699 0.4723,-2.3222 -0.7693,-3.0493 l -16.1318,0.8491 13.5007,-2.9703 c 1.5153,-2.2024 0.5221,-3.1645 -2.6851,-3.0325 -3.3854,-0.9295 -9.1324,-0.5686 -10.3887,-0.8668 l -2.3352,-0.2231 -6.3439,-0.5383 c 6.189,-3.901 16.7208,-16.05268 -7.6901,-1.7584 -3.6498,2.1372 -7.1206,5.5205 -9.7445,6.9571 -3.4519,1.89 -6.0023,3.8425 -6.0023,3.8425 l -5.3406,0.739 -18.9142,4.7419 -10.1267,1.1181 -6.8187,-0.085 -3.8256,1.8189 -1.4406,-3.7513 c 0,0 5.7545,-8.4659 6.8399,-13.6038 0.7919,-3.7487 -0.395,-11.82738 -0.395,-11.82738 l 5.5914,-8.01922 c 5.3443,-12.65331 1.7536,-26.24774 -2.486,-39.91051 -11.6528,-1.21627 -21.9552,0.95488 -25.1734,20.89826 z"
         style="fill:#333333;fill-opacity:1;fill-rule:evenodd;stroke:#000000;stroke-width:0.56941187px;stroke-linecap:butt;stroke-linejoin:miter;stroke-opacity:1" />
    </g>
    <path
       inkscape:transform-center-y="41.903094"
       inkscape:export-ydpi="100"
       inkscape:export-xdpi="100"
       inkscape:transform-center-x="2.1270939"
       sodipodi:nodetypes="cccccccscccc"
       inkscape:connector-curvature="0"
       id="path1655"
       d="m 1133.3529,1251.1543 -4.0895,-39.3334 -2.0961,-22.4316 5.9034,-29.9256 c 13.8084,-19.9583 28.7408,-18.6683 43.7441,5.8611 l 3.7598,20.7273 -2.0502,25.3633 c 0,0 1.0095,11.5813 0.063,17.2214 -1.0775,6.4183 -6.4183,18.2101 -6.4183,18.2101 l -1.4282,5.404 -5.4812,13.3279 c -10.3257,14.3019 -20.9959,7.3563 -31.9065,-14.4245 z"
       style="fill:#333333;fill-opacity:1;fill-rule:evenodd;stroke:#000000;stroke-width:0.49018744px;stroke-linecap:butt;stroke-linejoin:miter;stroke-opacity:1" />
    <path
       inkscape:export-ydpi="100"
       inkscape:export-xdpi="100"
       inkscape:transform-center-y="-35.040822"
       inkscape:transform-center-x="-5.9096383"
       sodipodi:nodetypes="cscscscssccsccccssssssssccccc"
       inkscape:connector-curvature="0"
       id="path1661"
       d="m 1123.2862,883.85355 c 0,0 17.9679,-0.83744 18.3867,-8.84236 0.074,-1.42672 -1.6659,-3.94856 -1.6659,-3.94856 0,0 3.8105,-1.185 3.9522,-2.7925 0.07,-0.7928 -1.6781,-1.69746 -1.6781,-1.69746 0,0 1.48,-0.91332 1.6964,-1.67917 0.4207,-1.48853 -1.1004,-4.50828 -1.1004,-4.50828 0,0 3.361,1.00156 4.4994,0.0244 1.006,-0.86365 0.87,-2.64115 0.5838,-3.93634 -0.5838,-2.64169 -4.4628,-6.77769 -4.4628,-6.77769 l -1.6598,-5.07411 c 0,0 1.842,-4.04588 1.7209,-6.18134 -0.1956,-3.44331 -3.8852,-9.5885 -3.8852,-9.5885 l 1.1371,-2.24497 4.5055,-1.10112 -3.9034,-6.21187 c 0,0 -5.2952,-4.65271 -8.4027,-6.2363 -4.5445,-2.31589 -9.5029,-4.37099 -14.5984,-4.58156 -4.9982,-0.20654 -9.7988,2.04089 -14.6412,3.29725 -3.7892,0.98314 -7.6981,1.70523 -11.2666,3.31556 -2.2283,1.00553 -4.5066,2.14963 -6.208,3.90582 -2.8648,2.95715 -5.2501,6.66259 -6.2445,10.65909 -0.9523,3.82706 0.5197,7.87739 0.4983,11.82126 -0.021,3.94387 -1.2584,7.92226 -0.6264,11.81516 0.6475,3.98861 4.4382,11.27986 4.4382,11.27986 l 5.5815,7.90935 0.6704,10.92798 c 7.4137,19.40237 18.9428,17.03387 31.8914,7.1575 z"
       style="fill:#333333;fill-rule:evenodd;stroke:#000000;stroke-width:0.49018744px;stroke-linecap:butt;stroke-linejoin:miter;stroke-opacity:1" />
  </g>
</svg>
